# xmcd CD database file
#
# Track frame offsets:
#	150
#	27002
#	78742
#	98957
#	127260
#	183595
#
# Disc length: 2751 seconds
#
# Revision: 0
# Processed by: cddbd v1.4PL0 Copyright (c) Steve Scherf et al.
# Submitted via: CDex 1.50
#
DISCID=4e0abd06
DTITLE=Johnny Winter - Dervish Blues
DYEAR=1994
DGENRE=Blues
TTITLE0=Rock and Roll People
TTITLE1=Sweet Papa John
TTITLE2=Roll with it
TTITLE3=Boney Morony
TTITLE4=Highway 61 Revisited
TTITLE5=Jumping Jack Flash
EXTD=YEAR: 1994
EXTT0=
EXTT1=
EXTT2=
EXTT3=
EXTT4=
EXTT5=
PLAYORDER=
